HIERARCHY
ROOT hips
{
  OFFSET 0 9.313263304106702 1.2146308026317778
  CHANNELS 6 Xposition Yposition Zposition Yrotation Xrotation Zrotation
  JOINT spine
  {
    OFFSET -6.402521e-31 0.5173342420023708 0
    CHANNELS 3 Yrotation Xrotation Zrotation
    JOINT chest
    {
      OFFSET 0 1.130544299341115 0
      CHANNELS 3 Yrotation Xrotation Zrotation
      JOINT upperChest
      {
        OFFSET 0 1.0863555061129995 0
        CHANNELS 3 Yrotation Xrotation Zrotation
        JOINT neck
        {
          OFFSET 0 1.3773706506454462 0
          CHANNELS 3 Yrotation Xrotation Zrotation
          JOINT head
          {
            OFFSET 0 0.7374408940073979 0
            CHANNELS 3 Yrotation Xrotation Zrotation
            JOINT leftEye
            {
              OFFSET 0.25066580148932727 0.6408406698778757 0.15963719178883284
              CHANNELS 3 Yrotation Xrotation Zrotation
              End Site
              {
                OFFSET 0.25066580148932727 0.6408406698778757 0.15963719178883284
              }
            }
            JOINT rightEye
            {
              OFFSET -0.25066576739704244 0.6408406384191823 0.15963727561643756
              CHANNELS 3 Yrotation Xrotation Zrotation
              End Site
              {
                OFFSET -0.25066576739704244 0.6408406384191823 0.15963727561643756
              }
            }
          }
        }
        JOINT leftShoulder
        {
          OFFSET 0.3761817444281191 1.0539491987447769 0
          CHANNELS 3 Yrotation Xrotation Zrotation
          JOINT leftUpperArm
          {
            OFFSET 0.8702844380000002 0 0
            CHANNELS 3 Yrotation Xrotation Zrotation
            JOINT leftLowerArm
            {
              OFFSET 2.198527310000323 0 0
              CHANNELS 3 Yrotation Xrotation Zrotation
              JOINT leftHand
              {
                OFFSET 2.146852313968281 0 0
                CHANNELS 3 Yrotation Xrotation Zrotation
                JOINT leftIndexProximal
                {
                  OFFSET 0.6585177834681599 0.07380250427007962 0.18382213159631788
                  CHANNELS 3 Yrotation Xrotation Zrotation
                  JOINT leftIndexIntermediate
                  {
                    OFFSET 0.3323021288626682 -0.009606893929485771 -0.012820872253340998
                    CHANNELS 3 Yrotation Xrotation Zrotation
                    JOINT leftIndexDistal
                    {
                      OFFSET 0.2045908926985518 -0.0071133989147997845 -0.006828784783599051
                      CHANNELS 3 Yrotation Xrotation Zrotation
                      End Site
                      {
                        OFFSET 0.2045908926985518 -0.0071133989147997845 -0.006828784783599051
                      }
                    }
                  }
                }
                JOINT leftLittleProximal
                {
                  OFFSET 0.6110054258835662 0.07380246363125398 -0.29175655876064077
                  CHANNELS 3 Yrotation Xrotation Zrotation
                  JOINT leftLittleIntermediate
                  {
                    OFFSET 0.3144281999999998 -2.5124724523095665e-9 1.8658118799974588e-7
                    CHANNELS 3 Yrotation Xrotation Zrotation
                    JOINT leftLittleDistal
                    {
                      OFFSET 0.18116185580251631 0.002815456192251098 0.0034826415518049436
                      CHANNELS 3 Yrotation Xrotation Zrotation
                      End Site
                      {
                        OFFSET 0.18116185580251631 0.002815456192251098 0.0034826415518049436
                      }
                    }
                  }
                }
                JOINT leftMiddleProximal
                {
                  OFFSET 0.6637478005691111 0.07380246480054087 0.02046981859247815
                  CHANNELS 3 Yrotation Xrotation Zrotation
                  JOINT leftMiddleIntermediate
                  {
                    OFFSET 0.3705733999999994 -2.9611069152224445e-9 9.35054791928458e-8
                    CHANNELS 3 Yrotation Xrotation Zrotation
                    JOINT leftMiddleDistal
                    {
                      OFFSET 0.22861063500000056 -1.82673876025774e-9 -1.6740782024515788e-7
                      CHANNELS 3 Yrotation Xrotation Zrotation
                      End Site
                      {
                        OFFSET 0.22861063500000056 -1.82673876025774e-9 -1.6740782024515788e-7
                      }
                    }
                  }
                }
                JOINT leftRingProximal
                {
                  OFFSET 0.6561845547265777 0.07380246406440083 -0.13588087571513918
                  CHANNELS 3 Yrotation Xrotation Zrotation
                  JOINT leftRingIntermediate
                  {
                    OFFSET 0.3437531000000005 -2.746796123886952e-9 1.4935781944558357e-7
                    CHANNELS 3 Yrotation Xrotation Zrotation
                    JOINT leftRingDistal
                    {
                      OFFSET 0.1983118991198174 -0.002467117924596085 -0.004538141969590015
                      CHANNELS 3 Yrotation Xrotation Zrotation
                      End Site
                      {
                        OFFSET 0.1983118991198174 -0.002467117924596085 -0.004538141969590015
                      }
                    }
                  }
                }
                JOINT leftThumbProximal
                {
                  OFFSET 0.09767004258864787 -0.14930060425447422 -0.07008212897521154
                  CHANNELS 3 Yrotation Xrotation Zrotation
                  JOINT leftThumbIntermediate
                  {
                    OFFSET 0.36682123028154767 -0.015768465060082004 0.28693641268151077
                    CHANNELS 3 Yrotation Xrotation Zrotation
                    JOINT leftThumbDistal
                    {
                      OFFSET 0.21091084272403915 -0.016756648201192714 0.1933767059105508
                      CHANNELS 3 Yrotation Xrotation Zrotation
                      End Site
                      {
                        OFFSET 0.21091084272403915 -0.016756648201192714 0.1933767059105508
                      }
                    }
                  }
                }
              }
            }
          }
        }
        JOINT rightShoulder
        {
          OFFSET -0.37618174442811925 1.0539491987447769 0
          CHANNELS 3 Yrotation Xrotation Zrotation
          JOINT rightUpperArm
          {
            OFFSET -0.870284438 0 0
            CHANNELS 3 Yrotation Xrotation Zrotation
            JOINT rightLowerArm
            {
              OFFSET -2.1985273100003235 0 0
              CHANNELS 3 Yrotation Xrotation Zrotation
              JOINT rightHand
              {
                OFFSET -2.1468523139682802 0 0
                CHANNELS 3 Yrotation Xrotation Zrotation
                JOINT rightIndexProximal
                {
                  OFFSET -0.6585177834681599 0.07380250427007962 0.18382213159631788
                  CHANNELS 3 Yrotation Xrotation Zrotation
                  JOINT rightIndexIntermediate
                  {
                    OFFSET -0.3323021288626682 -0.009606893929485771 -0.012820872253340998
                    CHANNELS 3 Yrotation Xrotation Zrotation
                    JOINT rightIndexDistal
                    {
                      OFFSET -0.2045908926985518 -0.0071133989147997845 -0.006828784783599051
                      CHANNELS 3 Yrotation Xrotation Zrotation
                      End Site
                      {
                        OFFSET -0.2045908926985518 -0.0071133989147997845 -0.006828784783599051
                      }
                    }
                  }
                }
                JOINT rightLittleProximal
                {
                  OFFSET -0.6110054258835662 0.07380246363125398 -0.29175655876064077
                  CHANNELS 3 Yrotation Xrotation Zrotation
                  JOINT rightLittleIntermediate
                  {
                    OFFSET -0.3144281999999998 -2.5124724523095665e-9 1.8658118799974588e-7
                    CHANNELS 3 Yrotation Xrotation Zrotation
                    JOINT rightLittleDistal
                    {
                      OFFSET -0.18116185580251631 0.002815456192251098 0.0034826415518049436
                      CHANNELS 3 Yrotation Xrotation Zrotation
                      End Site
                      {
                        OFFSET -0.18116185580251631 0.002815456192251098 0.0034826415518049436
                      }
                    }
                  }
                }
                JOINT rightMiddleProximal
                {
                  OFFSET -0.6637478005691111 0.07380246480054087 0.02046981859247815
                  CHANNELS 3 Yrotation Xrotation Zrotation
                  JOINT rightMiddleIntermediate
                  {
                    OFFSET -0.3705733999999994 -2.9611069152224445e-9 9.35054791928458e-8
                    CHANNELS 3 Yrotation Xrotation Zrotation
                    JOINT rightMiddleDistal
                    {
                      OFFSET -0.22861063500000056 -1.82673876025774e-9 -1.6740782024515788e-7
                      CHANNELS 3 Yrotation Xrotation Zrotation
                      End Site
                      {
                        OFFSET -0.22861063500000056 -1.82673876025774e-9 -1.6740782024515788e-7
                      }
                    }
                  }
                }
                JOINT rightRingProximal
                {
                  OFFSET -0.6561845547265777 0.07380246406440083 -0.13588087571513918
                  CHANNELS 3 Yrotation Xrotation Zrotation
                  JOINT rightRingIntermediate
                  {
                    OFFSET -0.3437531000000005 -2.746796123886952e-9 1.4935781944558357e-7
                    CHANNELS 3 Yrotation Xrotation Zrotation
                    JOINT rightRingDistal
                    {
                      OFFSET -0.1983118991198174 -0.002467117924596085 -0.004538141969590015
                      CHANNELS 3 Yrotation Xrotation Zrotation
                      End Site
                      {
                        OFFSET -0.1983118991198174 -0.002467117924596085 -0.004538141969590015
                      }
                    }
                  }
                }
                JOINT rightThumbProximal
                {
                  OFFSET -0.09767004258864787 -0.14930060425447422 -0.07008212897521154
                  CHANNELS 3 Yrotation Xrotation Zrotation
                  JOINT rightThumbIntermediate
                  {
                    OFFSET -0.36682123028154767 -0.015768465060082004 0.28693641268151077
                    CHANNELS 3 Yrotation Xrotation Zrotation
                    JOINT rightThumbDistal
                    {
                      OFFSET -0.21091084272403915 -0.016756648201192714 0.1933767059105508
                      CHANNELS 3 Yrotation Xrotation Zrotation
                      End Site
                      {
                        OFFSET -0.21091084272403915 -0.016756648201192714 0.1933767059105508
                      }
                    }
                  }
                }
              }
            }
          }
        }
      }
    }
  }
  JOINT leftUpperLeg
  {
    OFFSET 0.7715603 -0.3993844658041501 0
    CHANNELS 3 Yrotation Xrotation Zrotation
    JOINT leftLowerLeg
    {
      OFFSET 0 -3.529830000249343 0
      CHANNELS 3 Yrotation Xrotation Zrotation
      JOINT leftFoot
      {
        OFFSET 0 -4.154939295409685 0.004208579085223096
        CHANNELS 3 Yrotation Xrotation Zrotation
        JOINT leftToes
        {
          OFFSET 0 -0.6353414391261847 1.10414981190622
          CHANNELS 3 Yrotation Xrotation Zrotation
          End Site
          {
            OFFSET 0 -0.6015820691747853 1.10414981190622
          }
        }
      }
    }
  }
  JOINT rightUpperLeg
  {
    OFFSET -0.7715603 -0.3993844658041501 0
    CHANNELS 3 Yrotation Xrotation Zrotation
    JOINT rightLowerLeg
    {
      OFFSET 0 -3.529830000249343 0
      CHANNELS 3 Yrotation Xrotation Zrotation
      JOINT rightFoot
      {
        OFFSET 0 -4.154939295409685 0.004208579085223096
        CHANNELS 3 Yrotation Xrotation Zrotation
        JOINT rightToes
        {
          OFFSET 0 -0.6353414391261847 1.10414981190622
          CHANNELS 3 Yrotation Xrotation Zrotation
          End Site
          {
            OFFSET 0 -0.6015820691747853 1.10414981190622
          }
        }
      }
    }
  }
}
MOTION
Frames: 4
Frame Time: 0.03333333333333333
-0.5241924516691295 9.71044117311133 1.7586716006193144 -2.6504337603224553 11.154655163287929 5.499856456532066 -1.921198071341293 -3.7673679350062037 0.6177909071023878 -3.8727243346945057 -10.070548400820629 1.2650635798509178 0 0 0 12.652394483740427 -9.508623378439124 -7.985053329954679 11.712175181776606 -6.921040185723343 -8.85631192826693 0 0 0 0 0 0 22.21735946844016 0.8087013986948398 4.016282055459644 -58.373581516191145 -31.195999417633967 30.517733154487146 -72.97945853445538 -54.83830569641298 47.382077883762385 -16.298132652636287 -37.616453772766114 52.61184849045524 6.169459443961507 -3.1586390621277074 8.61908580458196 4.401441931268965 -3.8050987178671507 0.0954234330687979 2.9062731605027134 -3.8100902243110006 1.3320813606710808 -3.401861361278461 -1.5615803288203285 9.562874143819663 4.432552981890182 1.8069071553494276 3.279580571576267 -1.5205507118831032 1.9070038632775932 3.4060308473475867 5.4278078715955225 -1.6747629779744937 6.209873654291079 1.6256230433584715 -1.412448058381383 -2.506272333043011 1.5595925892437028 -1.35472381180185 4.027627925206243 3.4391294811301067 -0.4616395514741222 7.94519018649641 -0.8264465706930898 -0.23878880040433795 5.574069091160357 1.344216968371914 -0.3162154315135353 0.4675670364384993 -5.016544315577777 -17.61440713746415 7.6650042164904 8.89359864312385 -1.0675292976495212 0.6755212712475167 -4.017976291962389 -1.9516708752922665 0.8760559506765555 -5.373755125239659 -1.559843642566952 -21.53210791752756 5.443512356603146 -31.74956763106609 -5.338608319574494 127.04897632188384 -5.555616840652658 -35.56128014545876 24.447838416157456 -35.947077975760536 -25.384413933967764 -6.167604856020704 -3.1613842765716287 -8.60633635640118 -4.404012738884835 -3.810865884849525 -0.09525349246846856 -2.908423451837607 -3.8155635019585805 -1.332584236065389 3.404284906730211 -1.5709393704111898 -9.544627994714254 -4.433982731190405 1.8003345377748043 -3.279816723117757 1.5189494290189727 1.900946837231488 -3.405752014803112 -5.429335068729858 -1.679591642452044 -6.209536174074655 -1.6282491762481865 -1.4175179248843233 2.5066838857337514 -1.5669051404863503 -1.3599500528101345 -4.062215045512945 -3.4389233642576524 -0.467517335921818 -7.950940216409247 0.8255432449275422 -0.2443462759079032 -5.573323988121045 -1.346849646003451 -0.32219623540509035 -0.4693003967194785 4.560649306487812 -17.588281141792415 -7.571408171961087 -8.901696913898187 -1.0599139251656102 -0.6759515003417665 4.008225417295392 -1.9450808420169963 -0.8781840089450067 18.35449311241957 -24.501410743011412 9.932401075157328 14.891174725777647 14.00432780224913 -1.0186715979430259 5.780756592154265 23.42599492846944 9.090643735351271 0 0 0 -4.198785943875369 -7.802177731544633 -8.968836867243715 0.496281838469452 26.985964303291347 -1.9196639489890728 3.7439119838195256 -6.938291196106099 20.4513253885162 0 0 0
-0.44948167391962573 9.753773137100751 1.7541047324151147 -2.3249956037882 10.893626608994252 4.264818545788074 -1.8111838471296609 -3.5563924375052625 1.1028307612030692 -4.0983577914298595 -9.926617134076556 2.1633709288721867 0 0 0 10.511715377729502 -9.236824252731786 -5.693470432471934 9.84642767464204 -6.644028202673265 -6.444969876965186 0 0 0 0 0 0 21.68821558520368 0.3091433056431303 6.0073487700558195 -56.8209036038847 -37.068985978585054 26.518632436387847 -92.22682993556707 -41.18466799195569 53.99078679035055 -20.988785553361303 -33.94562499517949 51.74177236274336 6.163652500178955 -3.152727747795198 8.582305402720438 4.395443305239266 -3.806445955419806 0.061741250132842214 2.900265787695635 -3.8105565617820356 1.2984215535041777 -3.4093084068281985 -1.56702089454886 9.526141735900522 4.4266183444198255 1.808020176182734 3.245300070860139 -1.5265029959616512 1.90721657073549 3.371807097122895 5.421494106586215 -1.6715596408825706 6.172445734975875 1.6196108718161126 -1.412713128931503 -2.540197802634533 1.5536331198895295 -1.3540983545833314 3.993914933203305 3.4322925048744874 -0.4632324781763838 7.907607908510989 -0.832444986308846 -0.23906102316221392 5.540005741454705 1.3382892614128492 -0.3163276244160024 0.4335762387120931 -5.016543423236734 -17.614410720553312 7.66500954310094 8.86571725606509 -1.0717370004998665 0.6785743088937516 -4.045807064520061 -1.9562696262564054 0.8794136833436297 -5.0798413650932455 -1.4433029874158687 -20.60143991492054 0.6970189516259415 -34.446615584848914 -4.778041281841254 121.33650961664299 -10.479751505112896 -43.5225466268462 19.563074776090943 -39.011399418382105 -21.942301149840425 -6.161796632158885 -3.155476580664909 -8.56955610587974 -4.398022772122269 -3.8122002964254706 -0.06163425701973703 -2.902396172845424 -3.816037543435595 -1.2989343732148881 3.4117443543206134 -1.5763933057457085 -9.50789679482954 -4.428043593972389 1.801422996456713 -3.2455054500967133 1.5248756626499012 1.9011546320395913 -3.3714633744219613 -5.423020860661742 -1.6763759124443232 -6.172016623522868 -1.622228241661642 -1.4177810744348849 2.5406183882193507 -1.5609017977892419 -1.3592912876951209 -4.028272299513495 -3.432051234833517 -0.4690998048736822 -7.913270988357629 0.8315378746966406 -0.24463047839782817 -5.539263080067441 -1.340917774564254 -0.3223196343292311 -0.43521462510971554 4.533883185286046 -17.58455351526601 -7.5637385146502085 -8.873823515982588 -1.0641438195552055 -0.6789995145786839 4.036107610577495 -1.949706270847221 -0.8815546535904382 21.945413481940967 -29.292314588704077 8.486935701867944 10.64027108618639 12.048930703978199 -1.1252220751500024 -2.129255470461506 17.93393416379927 7.814959110853662 0 0 0 -5.928471288580603 -5.954960664139172 -9.324320646406886 1.546127235219713 23.413891953368104 -1.2542178987709849 6.379064721144813 -5.371674806209018 25.860809221936922 0 0 0
-0.3589752204571443 9.79692476308006 1.7633361643734937 -2.3030320191908857 10.897914723888315 2.7380454040557773 -1.793291587062418 -3.5199331886559584 1.7243618644883327 -4.656478673078444 -9.78213919122481 3.563006372315565 0 0 0 7.179288861666673 -8.842988292969913 -2.336931589929214 6.919987326982802 -6.256234379991925 -2.8903933560198505 0 0 0 0 0 0 21.14663562466768 -0.17200647304074645 8.004363566268713 -52.540447515615206 -41.924923541977996 20.727022666645222 -105.38066622876156 -26.19981328004377 53.744394352249344 -25.693685167336486 -31.414736477225212 48.30466027364467 6.1575929821343935 -3.1465556728871875 8.543937223617798 4.389191670432729 -3.8078565141125456 0.0266647403169809 2.8939733168458335 -3.811054131307422 1.2633224304337418 -3.4170855752052667 -1.5727090552946057 9.487827281748999 4.420444344529359 1.8091393906444282 3.2096258938503164 -1.532717426538395 1.9074331223310845 3.3360136491027537 5.4149214103050936 -1.6682223164803587 6.133339613665284 1.613324684068543 -1.412995813949409 -2.575595778246766 1.5474065812786146 -1.3533957162005887 3.9588136038074655 3.425162600531949 -0.4648892802799064 7.868464856676025 -0.8386892615195827 -0.23935160221903873 5.504479830467525 1.332086977052943 -0.31647490261561245 0.39805159943930046 -5.016548777282957 -17.61440892900872 7.665011318637755 8.83666221627996 -1.0761271286950973 0.681763988086062 -4.074819721942846 -1.9610646592645022 0.8829037221648888 -4.334189305883122 -1.3116336097362449 -19.93824675466401 -4.431568652176138 -36.64028414262075 -3.63622150176651 115.75338403754411 -15.961181564881203 -51.224856336155995 11.888676613337132 -40.95682693636583 -16.55152006479078 -6.155728182630681 -3.149304275689347 -8.531220376237036 -4.391750197482866 -3.8135997408640154 -0.026527948373249326 -2.8961399823753524 -3.8165372553119292 -1.2638554509373006 3.4194902316705673 -1.582068787342208 -9.469699228928544 -4.42186919173277 1.8025477591328125 -3.2097949641815324 1.5311005164099702 1.9013771625812492 -3.335702231467447 -5.416412959943955 -1.6730441317472073 -6.132822629965018 -1.6159474828909255 -1.418058315596172 2.57600407001861 -1.5546184867473933 -1.3586103184028042 -3.992896688753589 -3.4248959695486274 -0.4707467362691011 -7.874010920441005 0.8377915430381896 -0.24491025190251992 -5.50373120542882 -1.3346936413305546 -0.32245567997727614 -0.39969845006199106 4.498994402185934 -17.579701088238746 -7.553769623926102 -8.844743357800503 -1.0685148303747443 -0.6821849832717433 4.065119643921823 -1.9544867625014186 -0.8850300038856768 14.73781988835926 -26.660503428422864 12.65952807543187 11.594231354498294 17.797553241954343 0.028711996748697514 4.043772873741198 24.412361655234896 3.7416049909744356 0 0 0 -7.1184566905677835 -3.844830065173469 -9.823901395487129 3.4644194018955665 19.090112717827502 -1.1570406488900993 10.102997407188356 -4.4449138779274495 36.61045170012588 0 0 0
-0.21511194361595587 9.841016459504578 1.8259470491900134 -3.488390056339286 10.80950263907572 1.0519494603827935 -1.9223820829837113 -3.4962559397847572 2.3688172913388628 -4.786149782503063 -9.584575090548654 5.0153426550850115 0 0 0 3.3047828198031532 -8.26925954173942 1.4862383025627675 3.5118717959762233 -5.704831012708075 1.1738068148047003 0 0 0 0 0 0 20.593674303307537 -0.6338096582546651 10.005089163635823 -45.671839107930914 -45.49917731696041 12.677180366379618 -114.931863169827 -12.378937064498851 50.01795789356576 -29.52375671693763 -29.787802685439516 42.223810559993176 6.151343999622128 -3.1402089890123572 8.504369945125838 4.382704776405719 -3.8092970233583068 -0.009564801731246709 2.887508082271036 -3.811564536115339 1.227080374245364 -3.4251095510852303 -1.5785996527131902 9.448311536670749 4.414051847296034 1.8102872214955648 3.1727389747569936 -1.5391251236292767 1.9076518095716548 3.299136654477863 5.4081134913793365 -1.66478090013482 6.093063881811572 1.6068586958312505 -1.413287786615425 -2.612061590808029 1.540989898769434 -1.3527322558057557 3.922592625521939 3.4177872732841457 -0.46657842052115667 7.828073255059587 -0.8451197980256976 -0.23965672224162762 5.467834459039313 1.3256823202371961 -0.31660267712780155 0.36145456349056565 -5.016548017794734 -17.614403554375052 7.66501043086935 8.806696316348965 -1.080640975666779 0.6850531519595614 -4.104757870855809 -1.9660004480616518 0.8865342917024686 -3.291287596195247 -1.174105350896843 -19.438051212867475 -9.91592675537748 -38.42556030089697 -1.9360568399656122 110.40490478557447 -21.95554317288417 -58.3421260387787 2.782849317408798 -41.32529979911643 -10.08840393964279 -6.149491155406865 -3.1429169597476014 -8.491652733010262 -4.385297226003561 -3.8150394040596614 0.009648172363453512 -2.889652102361648 -3.8170502303915104 -1.227584719638433 3.4274890992839433 -1.5879360302765118 -9.430270309144477 -4.415484646739504 1.8037079716739215 -3.1729382433343924 1.537498172244542 1.9015890151005437 -3.2988215284394813 -5.409603424182746 -1.6695787911480795 -6.092455684821175 -1.609497167666877 -1.4183471930217366 2.61243924894398 -1.5481577307033703 -1.3579139770597142 -3.956440249913879 -3.4175025251817948 -0.4724553019336757 -7.833465468882189 0.8442337670208926 -0.24521491847888136 -5.467120139980696 -1.328298796967803 -0.3225969283927614 -0.3630973907122484 4.4553873459832305 -17.573571704285857 -7.541282054481172 -8.814749494541646 -1.0730332559358655 -0.6854624396889981 4.095117901876915 -1.9594441023011864 -0.8886841085727114 13.3478954087051 -20.79164278999886 12.406285079024952 13.926000133966989 22.660499481757267 1.1859270167177205 5.665300120642131 27.259436579182836 0.5195518825601142 0 0 0 -10.989273365596144 -1.948778108701389 -10.307894155894706 6.189772509050664 14.338078665253574 -1.3825230070546808 17.193276066759026 -4.9571030433218 48.74651064813974 0 0 0
